<?xml version="1.0" encoding="UTF-8" standalone="no"?>
<svg
   xmlns:dc="http://purl.org/dc/elements/1.1/"
   xmlns:cc="http://creativecommons.org/ns#"
   xmlns:rdf="http://www.w3.org/1999/02/22-rdf-syntax-ns#"
   xmlns:svg="http://www.w3.org/2000/svg"
   xmlns="http://www.w3.org/2000/svg"
   version="1.1"
   width="512"
   viewBox="0 0 24 24"
   height="512"
   enable-background="new 0 0 24 24"
   id="Bold">
  <metadata
     id="metadata9">
    <rdf:RDF>
      <cc:Work
         rdf:about="">
        <dc:format>image/svg+xml</dc:format>
        <dc:type
           rdf:resource="http://purl.org/dc/dcmitype/StillImage" />
        <dc:title></dc:title>
      </cc:Work>
    </rdf:RDF>
  </metadata>
  <defs
     id="defs7" />
  <path
     id="path2"
     d="m.828 13.336c-.261.304-.388.691-.357 1.091s.215.764.52 1.024l7.403 6.346c.275.235.616.361.974.361.044 0 .089-.002.134-.006.405-.036.77-.229 1.028-.542l12.662-15.411c.254-.31.373-.7.334-1.099-.04-.399-.231-.759-.541-1.014l-2.318-1.904c-.639-.524-1.585-.432-2.111.207l-9.745 11.861-3.916-3.355c-.628-.536-1.576-.465-2.115.163z" />
  <path
     transform="scale(0.046875)"
     id="path13"
     d="M 191.1322,470.19399 C 183.65365,467.9764 21.699532,330.20772 15.957184,321.17875 c -4.316761,-6.78745 -5.015016,-22.38132 -1.317188,-29.41629 1.369964,-2.60629 13.583065,-17.63931 27.140226,-33.40667 20.49436,-23.83555 26.059027,-29.04755 33.011996,-30.91979 15.725854,-4.23453 19.877326,-1.82554 68.086732,39.50898 24.94509,21.3878 45.60979,38.56015 45.92155,38.16079 33.90985,-43.4378 212.19345,-257.335524 216.8615,-260.182011 7.6042,-4.636893 20.92787,-5.405808 28.0535,-1.618982 10.01817,5.324029 61.53616,49.554641 63.98864,54.937269 3.39787,7.457534 3.26087,20.381474 -0.28787,27.154564 -3.35085,6.39536 -260.44032,320.0571 -273.4239,333.59052 -4.9361,5.14514 -12.27266,10.19529 -16.52894,11.37775 -8.6373,2.39956 -7.62707,2.41013 -16.33123,-0.17096 z"
     style="fill:#ffffff;fill-opacity:1;stroke:#000000;stroke-width:2.16949153;stroke-linecap:round;stroke-linejoin:round;stroke-miterlimit:4.5999999;stroke-dasharray:none;stroke-opacity:1;paint-order:stroke markers fill" />
</svg>
